HIERARCHY
ROOT joint_Root
{
	OFFSET 0.0 0.0 0.0
	CHANNELS 6 Xposition Yposition Zposition Zrotation Xrotation Yrotation 
	JOINT Hips
	{
		OFFSET -17.1583 93.1646 452.98
		CHANNELS 6 Xposition Yposition Zposition Zrotation Xrotation Yrotation 
		JOINT Spine
		{
			OFFSET 15.7357 0.0 0.0
			CHANNELS 6 Xposition Yposition Zposition Zrotation Xrotation Yrotation 
			JOINT Chest
			{
				OFFSET 8.98455 -0.406207 0.0
				CHANNELS 6 Xposition Yposition Zposition Zrotation Xrotation Yrotation 
				JOINT Neck
				{
					OFFSET 16.3773 0.0 0.0
					CHANNELS 6 Xposition Yposition Zposition Zrotation Xrotation Yrotation 
					JOINT Head
					{
						OFFSET 6.45672 0.0 0.0
						CHANNELS 6 Xposition Yposition Zposition Zrotation Xrotation Yrotation 
						End Site
						{
							OFFSET 0.0 0.0 0.0
						}
					}
				}
				JOINT Shoulder_L
				{
					OFFSET 12.9942 -0.242716 4.98039
					CHANNELS 6 Xposition Yposition Zposition Zrotation Xrotation Yrotation 
					JOINT UpperArm_L
					{
						OFFSET 5.34809 0.0 0.0
						CHANNELS 6 Xposition Yposition Zposition Zrotation Xrotation Yrotation 
						JOINT LowerArm_L
						{
							OFFSET 24.3286 1.87007e-05 0.0
							CHANNELS 6 Xposition Yposition Zposition Zrotation Xrotation Yrotation 
							JOINT Hand_L
							{
								OFFSET 22.2916 0.0 0.0
								CHANNELS 6 Xposition Yposition Zposition Zrotation Xrotation Yrotation 
								End Site
								{
									OFFSET 0.0 0.0 0.0
								}
							}
						}
					}
				}
				JOINT Shoulder_R
				{
					OFFSET 12.9945 -0.242716 -4.98039
					CHANNELS 6 Xposition Yposition Zposition Zrotation Xrotation Yrotation 
					JOINT UpperArm_R
					{
						OFFSET -5.34813 0.0 0.0
						CHANNELS 6 Xposition Yposition Zposition Zrotation Xrotation Yrotation 
						JOINT LowerArm_R
						{
							OFFSET -24.3289 0.000322201 0.0
							CHANNELS 6 Xposition Yposition Zposition Zrotation Xrotation Yrotation 
							JOINT Hand_R
							{
								OFFSET -22.2915 -0.000108084 0.0
								CHANNELS 6 Xposition Yposition Zposition Zrotation Xrotation Yrotation 
								End Site
								{
									OFFSET 0.0 0.0 0.0
								}
							}
						}
					}
				}
			}
		}
		JOINT UpperLeg_L
		{
			OFFSET -2.19248 -6.46944 0.0
			CHANNELS 6 Xposition Yposition Zposition Zrotation Xrotation Yrotation 
			JOINT LowerLeg_L
			{
				OFFSET 39.0811 0.0 -1.23785e-05
				CHANNELS 6 Xposition Yposition Zposition Zrotation Xrotation Yrotation 
				JOINT Foot_L
				{
					OFFSET 40.9854 0.0 -1.26872e-05
					CHANNELS 6 Xposition Yposition Zposition Zrotation Xrotation Yrotation 
					JOINT Toes_L
					{
						OFFSET 11.7543 0.0 0.0
						CHANNELS 6 Xposition Yposition Zposition Zrotation Xrotation Yrotation 
						End Site
						{
							OFFSET 0.0 0.0 0.0
						}
					}
				}
			}
		}
		JOINT UpperLeg_R
		{
			OFFSET -2.19251 6.46944 0.0
			CHANNELS 6 Xposition Yposition Zposition Zrotation Xrotation Yrotation 
			JOINT LowerLeg_R
			{
				OFFSET -39.0811 -0.00228153 -0.0401928
				CHANNELS 6 Xposition Yposition Zposition Zrotation Xrotation Yrotation 
				JOINT Foot_R
				{
					OFFSET -40.9854 0.0 0.0
					CHANNELS 6 Xposition Yposition Zposition Zrotation Xrotation Yrotation 
					JOINT Toes_R
					{
						OFFSET -11.7543 0.0 0.0
						CHANNELS 6 Xposition Yposition Zposition Zrotation Xrotation Yrotation 
						End Site
						{
							OFFSET 0.0 0.0 0.0
						}
					}
				}
			}
		}
	}
}
MOTION
Frames:	4
Frame Time:	0.0333333
0.000000 0.000000 0.000000 0.000000 0.000000 -0.000000 -2.527660 92.930900 -1.783850 87.691500 4.706670 1.303020 15.735700 0.000005 -0.000001 66.938300 87.246900 -64.811300 8.984550 -0.406207 -0.000000 -2.653710 -2.349410 4.200180 16.377300 -0.000001 -0.000001 4.434790 1.814970 -2.559890 6.456720 -0.000001 -0.000000 1.043010 1.103430 -3.352980 12.994200 -0.242716 4.980390 -92.571000 7.465040 -70.933900 5.348090 -0.000007 -0.000001 -73.015500 24.822800 1.738700 24.328600 0.000019 0.000005 14.371900 28.258200 -28.422400 22.291600 -0.000001 0.000005 -1.366370 4.965360 8.047650 12.994500 -0.242716 -4.980390 88.530700 4.555740 -72.103400 -5.348130 -0.000001 -0.000004 -69.771500 28.337400 -4.639850 -24.328900 0.000322 -0.000009 2.519350 8.291210 -16.974500 -22.291500 -0.000108 -0.000004 1.730990 5.220600 2.197330 -2.192480 -6.469440 -0.000000 -175.447000 4.036850 -4.210360 39.081100 -0.000007 -0.000012 0.189711 -0.517945 20.116900 40.985400 -0.000006 -0.000013 1.456580 12.182100 -71.298900 11.754300 -0.000000 0.000003 0.000334 0.161806 -10.014300 -2.192510 6.469440 -0.000001 -174.255000 9.206080 -179.208000 -39.081100 -0.002282 -0.040193 0.049567 -0.204686 12.727900 -40.985400 0.000008 0.000006 1.624260 0.327507 -68.871800 -11.754300 -0.000006 -0.000006 -0.009643 0.268617 -5.660920
0.000000 0.000000 0.000000 0.000000 0.000000 -0.000000 -2.541800 92.930700 -1.733200 87.654300 4.661340 1.204820 15.735700 0.000005 -0.000001 67.032200 87.271800 -64.901200 8.984550 -0.406207 -0.000000 -2.696410 -2.322840 4.207980 16.377300 -0.000001 -0.000001 4.284540 1.782690 -2.597450 6.456720 -0.000001 -0.000000 0.910387 1.037460 -3.529320 12.994200 -0.242716 4.980390 -92.596900 7.523090 -70.893200 5.348090 -0.000007 -0.000001 -72.808500 22.888600 2.105270 24.328600 0.000019 0.000005 14.865700 27.519300 -29.876800 22.291600 -0.000001 0.000005 -1.396190 4.941130 8.547080 12.994500 -0.242716 -4.980390 88.519800 4.581550 -72.073900 -5.348130 -0.000001 -0.000004 -69.713300 28.347400 -4.656420 -24.328900 0.000322 -0.000009 2.531810 8.295370 -17.045700 -22.291500 -0.000108 -0.000004 1.785860 5.219220 2.232870 -2.192480 -6.469440 -0.000000 -175.395000 4.019970 -4.273700 39.081100 -0.000007 -0.000012 0.192113 -0.524163 20.128900 40.985400 -0.000006 -0.000013 1.442490 12.137600 -71.408300 11.754300 -0.000000 0.000003 0.000226 0.163728 -9.936290 -2.192510 6.469440 -0.000001 -174.210000 9.153560 -179.254000 -39.081100 -0.002282 -0.040193 0.047535 -0.196601 12.670700 -40.985400 0.000008 0.000006 1.487970 0.346389 -68.812600 -11.754300 -0.000006 -0.000006 -0.009476 0.267350 -5.712730
0.000000 0.000000 0.000000 0.000000 0.000000 -0.000000 -2.554240 92.926700 -1.686010 87.610400 4.620730 1.104520 15.735700 0.000005 -0.000001 66.952500 87.296400 -64.819300 8.984550 -0.406207 -0.000000 -2.744870 -2.311630 4.211680 16.377300 -0.000001 -0.000001 4.118610 1.751230 -2.637760 6.456720 -0.000001 -0.000000 0.726050 0.983543 -3.755540 12.994200 -0.242716 4.980390 -92.624400 7.567360 -70.809200 5.348090 -0.000007 -0.000001 -72.514900 20.381000 2.664250 24.328600 0.000019 0.000005 15.789600 26.660500 -32.219700 22.291600 -0.000001 0.000005 -1.749030 4.933540 8.702450 12.994500 -0.242716 -4.980390 88.511300 4.601700 -72.051100 -5.348130 -0.000001 -0.000004 -69.658200 28.298500 -4.663700 -24.328900 0.000322 -0.000009 2.534100 8.282450 -17.085100 -22.291500 -0.000108 -0.000004 1.739920 5.221930 2.163390 -2.192480 -6.469440 -0.000000 -175.329000 3.974580 -4.356660 39.081100 -0.000007 -0.000012 0.194027 -0.528426 20.162500 40.985400 -0.000006 -0.000013 1.437880 12.141000 -71.473500 11.754300 -0.000000 0.000003 0.000097 0.165980 -9.844830 -2.192510 6.469440 -0.000001 -174.146000 9.078850 -179.287000 -39.081100 -0.002282 -0.040193 0.046182 -0.191710 12.598700 -40.985400 0.000008 0.000006 1.438960 0.339787 -68.778700 -11.754300 -0.000006 -0.000006 -0.009284 0.265876 -5.772980
0.000000 0.000000 0.000000 0.000000 0.000000 -0.000000 -2.571850 92.926900 -1.641910 87.577000 4.569600 1.032800 15.735700 0.000005 -0.000001 67.155300 87.309900 -65.034200 8.984550 -0.406207 -0.000000 -2.762950 -2.282810 4.188010 16.377300 -0.000001 -0.000001 3.920640 1.642390 -2.700130 6.456720 -0.000001 -0.000000 0.509086 0.786360 -3.989560 12.994200 -0.242716 4.980390 -92.660600 7.629870 -70.710600 5.348090 -0.000007 -0.000001 -72.134800 17.257100 3.364630 24.328600 0.000019 0.000005 17.018500 25.279300 -35.632600 22.291600 -0.000001 0.000005 -2.079460 4.899760 9.382220 12.994500 -0.242716 -4.980390 88.496200 4.637320 -72.010700 -5.348130 -0.000001 -0.000004 -69.622800 28.177700 -4.683280 -24.328900 0.000322 -0.000009 2.561730 8.354480 -17.121400 -22.291500 -0.000108 -0.000004 1.705310 5.220720 2.194390 -2.192480 -6.469440 -0.000000 -175.283000 3.969930 -4.385760 39.081100 -0.000007 -0.000012 0.194967 -0.531204 20.154900 40.985400 -0.000006 -0.000013 1.424930 12.099800 -71.530100 11.754300 -0.000000 0.000003 0.000067 0.166493 -9.823990 -2.192510 6.469440 -0.000001 -174.105000 9.085410 -179.280000 -39.081100 -0.002282 -0.040193 0.044851 -0.187317 12.496700 -40.985400 0.000008 0.000006 1.440370 0.401815 -68.760400 -11.754300 -0.000006 -0.000006 -0.009528 0.267744 -5.696610
